<svg width="400" height="284" viewBox="0 0 400 284" fill="none" xmlns="http://www.w3.org/2000/svg">
<rect x="1" y="1" width="398" height="282" rx="4" fill="white"/>
<g clip-path="url(#clip0_33_74)">
<path d="M200 72C195.253 72 190.613 70.5924 186.666 67.9553C182.72 65.3181 179.643 61.5698 177.827 57.1844C176.01 52.799 175.535 47.9734 176.461 43.3178C177.387 38.6623 179.673 34.3859 183.029 31.0294C186.386 27.673 190.662 25.3872 195.318 24.4612C199.973 23.5351 204.799 24.0104 209.184 25.8269C213.57 27.6434 217.318 30.7195 219.955 34.6663C222.592 38.6131 224 43.2533 224 48C223.993 54.3631 221.462 60.4636 216.963 64.963C212.464 69.4624 206.363 71.9931 200 72V72ZM200 28C196.044 28 192.178 29.173 188.889 31.3706C185.6 33.5682 183.036 36.6918 181.522 40.3463C180.009 44.0009 179.613 48.0222 180.384 51.9018C181.156 55.7814 183.061 59.3451 185.858 62.1421C188.655 64.9392 192.219 66.844 196.098 67.6157C199.978 68.3874 203.999 67.9914 207.654 66.4776C211.308 64.9639 214.432 62.4004 216.629 59.1114C218.827 55.8224 220 51.9556 220 48C219.994 42.6975 217.885 37.6138 214.136 33.8643C210.386 30.1148 205.303 28.0058 200 28V28Z" fill="#FD1212"/>
<path d="M202 34H198V54H202V34Z" fill="#FD1212"/>
<path d="M202 58H198V62H202V58Z" fill="#FD1212"/>
</g>
<path d="M162.75 100L158.538 87.4H160.392L164.262 99.028H163.326L167.34 87.4H168.996L172.92 99.028H172.02L175.944 87.4H177.654L173.442 100H171.552L167.88 89.218H168.366L164.676 100H162.75ZM184.805 100V97.984L184.715 97.606V94.168C184.715 93.436 184.499 92.872 184.067 92.476C183.647 92.068 183.011 91.864 182.159 91.864C181.595 91.864 181.043 91.96 180.503 92.152C179.963 92.332 179.507 92.578 179.135 92.89L178.415 91.594C178.907 91.198 179.495 90.898 180.179 90.694C180.875 90.478 181.601 90.37 182.357 90.37C183.665 90.37 184.673 90.688 185.381 91.324C186.089 91.96 186.443 92.932 186.443 94.24V100H184.805ZM181.673 100.108C180.965 100.108 180.341 99.988 179.801 99.748C179.273 99.508 178.865 99.178 178.577 98.758C178.289 98.326 178.145 97.84 178.145 97.3C178.145 96.784 178.265 96.316 178.505 95.896C178.757 95.476 179.159 95.14 179.711 94.888C180.275 94.636 181.031 94.51 181.979 94.51H185.003V95.752H182.051C181.187 95.752 180.605 95.896 180.305 96.184C180.005 96.472 179.855 96.82 179.855 97.228C179.855 97.696 180.041 98.074 180.413 98.362C180.785 98.638 181.301 98.776 181.961 98.776C182.609 98.776 183.173 98.632 183.653 98.344C184.145 98.056 184.499 97.636 184.715 97.084L185.057 98.272C184.829 98.836 184.427 99.286 183.851 99.622C183.275 99.946 182.549 100.108 181.673 100.108ZM189.641 100V90.46H191.297V93.052L191.135 92.404C191.399 91.744 191.843 91.24 192.467 90.892C193.091 90.544 193.859 90.37 194.771 90.37V92.044C194.699 92.032 194.627 92.026 194.555 92.026C194.495 92.026 194.435 92.026 194.375 92.026C193.451 92.026 192.719 92.302 192.179 92.854C191.639 93.406 191.369 94.204 191.369 95.248V100H189.641ZM201.995 90.37C202.775 90.37 203.459 90.52 204.047 90.82C204.647 91.12 205.115 91.576 205.451 92.188C205.787 92.8 205.955 93.574 205.955 94.51V100H204.227V94.708C204.227 93.784 203.999 93.088 203.543 92.62C203.099 92.152 202.469 91.918 201.653 91.918C201.041 91.918 200.507 92.038 200.051 92.278C199.595 92.518 199.241 92.872 198.989 93.34C198.749 93.808 198.629 94.39 198.629 95.086V100H196.901V90.46H198.557V93.034L198.287 92.35C198.599 91.726 199.079 91.24 199.727 90.892C200.375 90.544 201.131 90.37 201.995 90.37ZM209.153 100V90.46H210.881V100H209.153ZM210.017 88.624C209.681 88.624 209.399 88.516 209.171 88.3C208.955 88.084 208.847 87.82 208.847 87.508C208.847 87.184 208.955 86.914 209.171 86.698C209.399 86.482 209.681 86.374 210.017 86.374C210.353 86.374 210.629 86.482 210.845 86.698C211.073 86.902 211.187 87.16 211.187 87.472C211.187 87.796 211.079 88.072 210.863 88.3C210.647 88.516 210.365 88.624 210.017 88.624ZM219.274 90.37C220.054 90.37 220.738 90.52 221.326 90.82C221.926 91.12 222.394 91.576 222.73 92.188C223.066 92.8 223.234 93.574 223.234 94.51V100H221.506V94.708C221.506 93.784 221.278 93.088 220.822 92.62C220.378 92.152 219.748 91.918 218.932 91.918C218.32 91.918 217.786 92.038 217.33 92.278C216.874 92.518 216.52 92.872 216.268 93.34C216.028 93.808 215.908 94.39 215.908 95.086V100H214.18V90.46H215.836V93.034L215.566 92.35C215.878 91.726 216.358 91.24 217.006 90.892C217.654 90.544 218.41 90.37 219.274 90.37ZM230.608 103.6C229.732 103.6 228.88 103.474 228.052 103.222C227.236 102.982 226.57 102.634 226.054 102.178L226.882 100.846C227.326 101.23 227.872 101.53 228.52 101.746C229.168 101.974 229.846 102.088 230.554 102.088C231.682 102.088 232.51 101.824 233.038 101.296C233.566 100.768 233.83 99.964 233.83 98.884V96.868L234.01 94.978L233.92 93.07V90.46H235.558V98.704C235.558 100.384 235.138 101.62 234.298 102.412C233.458 103.204 232.228 103.6 230.608 103.6ZM230.392 99.604C229.468 99.604 228.64 99.412 227.908 99.028C227.188 98.632 226.612 98.086 226.18 97.39C225.76 96.694 225.55 95.89 225.55 94.978C225.55 94.054 225.76 93.25 226.18 92.566C226.612 91.87 227.188 91.33 227.908 90.946C228.64 90.562 229.468 90.37 230.392 90.37C231.208 90.37 231.952 90.538 232.624 90.874C233.296 91.198 233.83 91.702 234.226 92.386C234.634 93.07 234.838 93.934 234.838 94.978C234.838 96.01 234.634 96.868 234.226 97.552C233.83 98.236 233.296 98.752 232.624 99.1C231.952 99.436 231.208 99.604 230.392 99.604ZM230.59 98.092C231.226 98.092 231.79 97.96 232.282 97.696C232.774 97.432 233.158 97.066 233.434 96.598C233.722 96.13 233.866 95.59 233.866 94.978C233.866 94.366 233.722 93.826 233.434 93.358C233.158 92.89 232.774 92.53 232.282 92.278C231.79 92.014 231.226 91.882 230.59 91.882C229.954 91.882 229.384 92.014 228.88 92.278C228.388 92.53 227.998 92.89 227.71 93.358C227.434 93.826 227.296 94.366 227.296 94.978C227.296 95.59 227.434 96.13 227.71 96.598C227.998 97.066 228.388 97.432 228.88 97.696C229.384 97.96 229.954 98.092 230.59 98.092ZM238.95 96.022L238.626 87.4H240.66L240.318 96.022H238.95ZM239.652 100.108C239.316 100.108 239.034 99.994 238.806 99.766C238.578 99.538 238.464 99.268 238.464 98.956C238.464 98.62 238.578 98.344 238.806 98.128C239.034 97.912 239.316 97.804 239.652 97.804C239.988 97.804 240.264 97.912 240.48 98.128C240.696 98.344 240.804 98.62 240.804 98.956C240.804 99.268 240.696 99.538 240.48 99.766C240.264 99.994 239.988 100.108 239.652 100.108Z" fill="#101F46"/>
<path d="M69.2321 140V130.192H65.3921V128.8H74.6561V130.192H70.8161V140H69.2321ZM80.7028 131.44C81.3961 131.44 82.0041 131.573 82.5268 131.84C83.0601 132.107 83.4761 132.512 83.7748 133.056C84.0734 133.6 84.2228 134.288 84.2228 135.12V140H82.6868V135.296C82.6868 134.475 82.4841 133.856 82.0788 133.44C81.6841 133.024 81.1241 132.816 80.3988 132.816C79.8548 132.816 79.3801 132.923 78.9748 133.136C78.5694 133.349 78.2548 133.664 78.0308 134.08C77.8174 134.496 77.7108 135.013 77.7108 135.632V140H76.1748V128.128H77.7108V133.808L77.4068 133.2C77.6841 132.645 78.1108 132.213 78.6868 131.904C79.2628 131.595 79.9348 131.44 80.7028 131.44ZM90.8414 140.096C89.9347 140.096 89.1347 139.909 88.4414 139.536C87.7587 139.163 87.2254 138.651 86.8414 138C86.468 137.349 86.2814 136.603 86.2814 135.76C86.2814 134.917 86.4627 134.171 86.8254 133.52C87.1987 132.869 87.7054 132.363 88.3454 132C88.996 131.627 89.7267 131.44 90.5374 131.44C91.3587 131.44 92.084 131.621 92.7134 131.984C93.3427 132.347 93.8334 132.859 94.1854 133.52C94.548 134.171 94.7294 134.933 94.7294 135.808C94.7294 135.872 94.724 135.947 94.7134 136.032C94.7134 136.117 94.708 136.197 94.6974 136.272H87.4814V135.168H93.8974L93.2734 135.552C93.284 135.008 93.172 134.523 92.9374 134.096C92.7027 133.669 92.3774 133.339 91.9614 133.104C91.556 132.859 91.0814 132.736 90.5374 132.736C90.004 132.736 89.5294 132.859 89.1134 133.104C88.6974 133.339 88.372 133.675 88.1374 134.112C87.9027 134.539 87.7854 135.029 87.7854 135.584V135.84C87.7854 136.405 87.9134 136.912 88.1694 137.36C88.436 137.797 88.804 138.139 89.2734 138.384C89.7427 138.629 90.2814 138.752 90.8894 138.752C91.3907 138.752 91.844 138.667 92.2494 138.496C92.6654 138.325 93.028 138.069 93.3374 137.728L94.1854 138.72C93.8014 139.168 93.3214 139.509 92.7454 139.744C92.18 139.979 91.5454 140.096 90.8414 140.096ZM101.383 140V130.768C101.383 129.936 101.623 129.275 102.103 128.784C102.594 128.283 103.287 128.032 104.183 128.032C104.514 128.032 104.828 128.075 105.127 128.16C105.436 128.235 105.698 128.357 105.911 128.528L105.447 129.696C105.287 129.568 105.106 129.472 104.903 129.408C104.7 129.333 104.487 129.296 104.263 129.296C103.815 129.296 103.474 129.424 103.239 129.68C103.004 129.925 102.887 130.293 102.887 130.784V131.92L102.919 132.624V140H101.383ZM99.9431 132.784V131.52H105.351V132.784H99.9431ZM106.807 140V131.52H108.343V140H106.807ZM107.575 129.888C107.276 129.888 107.026 129.792 106.823 129.6C106.631 129.408 106.535 129.173 106.535 128.896C106.535 128.608 106.631 128.368 106.823 128.176C107.026 127.984 107.276 127.888 107.575 127.888C107.874 127.888 108.119 127.984 108.311 128.176C108.514 128.357 108.615 128.587 108.615 128.864C108.615 129.152 108.519 129.397 108.327 129.6C108.135 129.792 107.884 129.888 107.575 129.888ZM111.269 140V128.128H112.805V140H111.269ZM119.513 140.096C118.607 140.096 117.807 139.909 117.113 139.536C116.431 139.163 115.897 138.651 115.513 138C115.14 137.349 114.953 136.603 114.953 135.76C114.953 134.917 115.135 134.171 115.497 133.52C115.871 132.869 116.377 132.363 117.017 132C117.668 131.627 118.399 131.44 119.209 131.44C120.031 131.44 120.756 131.621 121.385 131.984C122.015 132.347 122.505 132.859 122.857 133.52C123.22 134.171 123.401 134.933 123.401 135.808C123.401 135.872 123.396 135.947 123.385 136.032C123.385 136.117 123.38 136.197 123.369 136.272H116.153V135.168H122.569L121.945 135.552C121.956 135.008 121.844 134.523 121.609 134.096C121.375 133.669 121.049 133.339 120.633 133.104C120.228 132.859 119.753 132.736 119.209 132.736C118.676 132.736 118.201 132.859 117.785 133.104C117.369 133.339 117.044 133.675 116.809 134.112C116.575 134.539 116.457 135.029 116.457 135.584V135.84C116.457 136.405 116.585 136.912 116.841 137.36C117.108 137.797 117.476 138.139 117.945 138.384C118.415 138.629 118.953 138.752 119.561 138.752C120.063 138.752 120.516 138.667 120.921 138.496C121.337 138.325 121.7 138.069 122.009 137.728L122.857 138.72C122.473 139.168 121.993 139.509 121.417 139.744C120.852 139.979 120.217 140.096 119.513 140.096ZM131.159 128.128L130.359 131.376L130.167 130.448C130.476 130.448 130.732 130.544 130.935 130.736C131.138 130.928 131.239 131.184 131.239 131.504C131.239 131.824 131.138 132.085 130.935 132.288C130.732 132.491 130.482 132.592 130.183 132.592C129.874 132.592 129.618 132.491 129.415 132.288C129.212 132.075 129.111 131.813 129.111 131.504C129.111 131.397 129.116 131.296 129.127 131.2C129.148 131.104 129.18 130.992 129.223 130.864C129.266 130.725 129.324 130.56 129.399 130.368L130.151 128.128H131.159ZM138.468 131.44C139.162 131.44 139.77 131.573 140.292 131.84C140.826 132.107 141.242 132.512 141.54 133.056C141.839 133.6 141.988 134.288 141.988 135.12V140H140.452V135.296C140.452 134.475 140.25 133.856 139.844 133.44C139.45 133.024 138.89 132.816 138.164 132.816C137.62 132.816 137.146 132.923 136.74 133.136C136.335 133.349 136.02 133.664 135.796 134.08C135.583 134.496 135.476 135.013 135.476 135.632V140H133.94V131.52H135.412V133.808L135.172 133.2C135.45 132.645 135.876 132.213 136.452 131.904C137.028 131.595 137.7 131.44 138.468 131.44ZM150.095 140V138.208L150.015 137.872V134.816C150.015 134.165 149.823 133.664 149.439 133.312C149.066 132.949 148.5 132.768 147.743 132.768C147.242 132.768 146.751 132.853 146.271 133.024C145.791 133.184 145.386 133.403 145.055 133.68L144.415 132.528C144.852 132.176 145.375 131.909 145.983 131.728C146.602 131.536 147.247 131.44 147.919 131.44C149.082 131.44 149.978 131.723 150.607 132.288C151.236 132.853 151.551 133.717 151.551 134.88V140H150.095ZM147.311 140.096C146.682 140.096 146.127 139.989 145.647 139.776C145.178 139.563 144.815 139.269 144.559 138.896C144.303 138.512 144.175 138.08 144.175 137.6C144.175 137.141 144.282 136.725 144.495 136.352C144.719 135.979 145.076 135.68 145.567 135.456C146.068 135.232 146.74 135.12 147.583 135.12H150.271V136.224H147.647C146.879 136.224 146.362 136.352 146.095 136.608C145.828 136.864 145.695 137.173 145.695 137.536C145.695 137.952 145.86 138.288 146.191 138.544C146.522 138.789 146.98 138.912 147.567 138.912C148.143 138.912 148.644 138.784 149.071 138.528C149.508 138.272 149.823 137.899 150.015 137.408L150.319 138.464C150.116 138.965 149.759 139.365 149.247 139.664C148.735 139.952 148.09 140.096 147.311 140.096ZM165.002 131.44C165.684 131.44 166.287 131.573 166.81 131.84C167.332 132.107 167.738 132.512 168.026 133.056C168.324 133.6 168.474 134.288 168.474 135.12V140H166.938V135.296C166.938 134.475 166.746 133.856 166.362 133.44C165.978 133.024 165.439 132.816 164.746 132.816C164.234 132.816 163.786 132.923 163.402 133.136C163.018 133.349 162.719 133.664 162.506 134.08C162.303 134.496 162.202 135.013 162.202 135.632V140H160.666V135.296C160.666 134.475 160.474 133.856 160.09 133.44C159.716 133.024 159.178 132.816 158.474 132.816C157.972 132.816 157.53 132.923 157.146 133.136C156.762 133.349 156.463 133.664 156.25 134.08C156.036 134.496 155.93 135.013 155.93 135.632V140H154.394V131.52H155.866V133.776L155.626 133.2C155.892 132.645 156.303 132.213 156.858 131.904C157.412 131.595 158.058 131.44 158.794 131.44C159.604 131.44 160.303 131.643 160.89 132.048C161.476 132.443 161.86 133.045 162.042 133.856L161.418 133.6C161.674 132.949 162.122 132.427 162.762 132.032C163.402 131.637 164.148 131.44 165.002 131.44ZM175.076 140.096C174.169 140.096 173.369 139.909 172.676 139.536C171.993 139.163 171.46 138.651 171.076 138C170.702 137.349 170.516 136.603 170.516 135.76C170.516 134.917 170.697 134.171 171.06 133.52C171.433 132.869 171.94 132.363 172.58 132C173.23 131.627 173.961 131.44 174.772 131.44C175.593 131.44 176.318 131.621 176.948 131.984C177.577 132.347 178.068 132.859 178.42 133.52C178.782 134.171 178.964 134.933 178.964 135.808C178.964 135.872 178.958 135.947 178.948 136.032C178.948 136.117 178.942 136.197 178.932 136.272H171.716V135.168H178.132L177.508 135.552C177.518 135.008 177.406 134.523 177.172 134.096C176.937 133.669 176.612 133.339 176.196 133.104C175.79 132.859 175.316 132.736 174.772 132.736C174.238 132.736 173.764 132.859 173.348 133.104C172.932 133.339 172.606 133.675 172.372 134.112C172.137 134.539 172.02 135.029 172.02 135.584V135.84C172.02 136.405 172.148 136.912 172.404 137.36C172.67 137.797 173.038 138.139 173.508 138.384C173.977 138.629 174.516 138.752 175.124 138.752C175.625 138.752 176.078 138.667 176.484 138.496C176.9 138.325 177.262 138.069 177.572 137.728L178.42 138.72C178.036 139.168 177.556 139.509 176.98 139.744C176.414 139.979 175.78 140.096 175.076 140.096ZM180.473 132.496L181.273 129.248L181.481 130.176C181.172 130.176 180.91 130.08 180.697 129.888C180.494 129.696 180.393 129.44 180.393 129.12C180.393 128.789 180.494 128.528 180.697 128.336C180.91 128.133 181.166 128.032 181.465 128.032C181.774 128.032 182.025 128.139 182.217 128.352C182.409 128.555 182.505 128.811 182.505 129.12C182.505 129.216 182.5 129.317 182.489 129.424C182.478 129.52 182.452 129.632 182.409 129.76C182.377 129.888 182.324 130.053 182.249 130.256L181.481 132.496H180.473ZM189.003 140V131.52H190.539V140H189.003ZM189.771 129.888C189.472 129.888 189.222 129.792 189.019 129.6C188.827 129.408 188.731 129.173 188.731 128.896C188.731 128.608 188.827 128.368 189.019 128.176C189.222 127.984 189.472 127.888 189.771 127.888C190.07 127.888 190.315 127.984 190.507 128.176C190.71 128.357 190.811 128.587 190.811 128.864C190.811 129.152 190.715 129.397 190.523 129.6C190.331 129.792 190.08 129.888 189.771 129.888ZM195.904 140.096C195.2 140.096 194.528 140 193.888 139.808C193.258 139.616 192.762 139.381 192.4 139.104L193.04 137.888C193.402 138.133 193.85 138.341 194.384 138.512C194.917 138.683 195.461 138.768 196.016 138.768C196.73 138.768 197.242 138.667 197.552 138.464C197.872 138.261 198.032 137.979 198.032 137.616C198.032 137.349 197.936 137.141 197.744 136.992C197.552 136.843 197.296 136.731 196.976 136.656C196.666 136.581 196.32 136.517 195.936 136.464C195.552 136.4 195.168 136.325 194.784 136.24C194.4 136.144 194.048 136.016 193.728 135.856C193.408 135.685 193.152 135.456 192.96 135.168C192.768 134.869 192.672 134.475 192.672 133.984C192.672 133.472 192.816 133.024 193.104 132.64C193.392 132.256 193.797 131.963 194.32 131.76C194.853 131.547 195.482 131.44 196.208 131.44C196.762 131.44 197.322 131.509 197.888 131.648C198.464 131.776 198.933 131.963 199.296 132.208L198.64 133.424C198.256 133.168 197.856 132.992 197.44 132.896C197.024 132.8 196.608 132.752 196.192 132.752C195.52 132.752 195.018 132.864 194.688 133.088C194.357 133.301 194.192 133.579 194.192 133.92C194.192 134.208 194.288 134.432 194.48 134.592C194.682 134.741 194.938 134.859 195.248 134.944C195.568 135.029 195.92 135.104 196.304 135.168C196.688 135.221 197.072 135.296 197.456 135.392C197.84 135.477 198.186 135.6 198.496 135.76C198.816 135.92 199.072 136.144 199.264 136.432C199.466 136.72 199.568 137.104 199.568 137.584C199.568 138.096 199.418 138.539 199.12 138.912C198.821 139.285 198.4 139.579 197.856 139.792C197.312 139.995 196.661 140.096 195.904 140.096ZM208.696 140.096C207.843 140.096 207.181 139.867 206.712 139.408C206.243 138.949 206.008 138.293 206.008 137.44V129.664H207.544V137.376C207.544 137.835 207.656 138.187 207.88 138.432C208.115 138.677 208.445 138.8 208.872 138.8C209.352 138.8 209.752 138.667 210.072 138.4L210.552 139.504C210.317 139.707 210.035 139.856 209.704 139.952C209.384 140.048 209.048 140.096 208.696 140.096ZM204.568 132.784V131.52H209.976V132.784H204.568ZM215.76 140.096C214.907 140.096 214.149 139.909 213.488 139.536C212.827 139.163 212.304 138.651 211.92 138C211.536 137.339 211.344 136.592 211.344 135.76C211.344 134.917 211.536 134.171 211.92 133.52C212.304 132.869 212.827 132.363 213.488 132C214.149 131.627 214.907 131.44 215.76 131.44C216.603 131.44 217.355 131.627 218.016 132C218.688 132.363 219.211 132.869 219.584 133.52C219.968 134.16 220.16 134.907 220.16 135.76C220.16 136.603 219.968 137.349 219.584 138C219.211 138.651 218.688 139.163 218.016 139.536C217.355 139.909 216.603 140.096 215.76 140.096ZM215.76 138.752C216.304 138.752 216.789 138.629 217.216 138.384C217.653 138.139 217.995 137.792 218.24 137.344C218.485 136.885 218.608 136.357 218.608 135.76C218.608 135.152 218.485 134.629 218.24 134.192C217.995 133.744 217.653 133.397 217.216 133.152C216.789 132.907 216.304 132.784 215.76 132.784C215.216 132.784 214.731 132.907 214.304 133.152C213.877 133.397 213.536 133.744 213.28 134.192C213.024 134.629 212.896 135.152 212.896 135.76C212.896 136.357 213.024 136.885 213.28 137.344C213.536 137.792 213.877 138.139 214.304 138.384C214.731 138.629 215.216 138.752 215.76 138.752ZM225.916 140.096C225.063 140.096 224.305 139.909 223.644 139.536C222.983 139.163 222.46 138.651 222.076 138C221.692 137.339 221.5 136.592 221.5 135.76C221.5 134.917 221.692 134.171 222.076 133.52C222.46 132.869 222.983 132.363 223.644 132C224.305 131.627 225.063 131.44 225.916 131.44C226.759 131.44 227.511 131.627 228.172 132C228.844 132.363 229.367 132.869 229.74 133.52C230.124 134.16 230.316 134.907 230.316 135.76C230.316 136.603 230.124 137.349 229.74 138C229.367 138.651 228.844 139.163 228.172 139.536C227.511 139.909 226.759 140.096 225.916 140.096ZM225.916 138.752C226.46 138.752 226.945 138.629 227.372 138.384C227.809 138.139 228.151 137.792 228.396 137.344C228.641 136.885 228.764 136.357 228.764 135.76C228.764 135.152 228.641 134.629 228.396 134.192C228.151 133.744 227.809 133.397 227.372 133.152C226.945 132.907 226.46 132.784 225.916 132.784C225.372 132.784 224.887 132.907 224.46 133.152C224.033 133.397 223.692 133.744 223.436 134.192C223.18 134.629 223.052 135.152 223.052 135.76C223.052 136.357 223.18 136.885 223.436 137.344C223.692 137.792 224.033 138.139 224.46 138.384C224.887 138.629 225.372 138.752 225.916 138.752ZM236.737 140V128.128H238.273V140H236.737ZM246.47 140V138.208L246.39 137.872V134.816C246.39 134.165 246.198 133.664 245.814 133.312C245.441 132.949 244.875 132.768 244.118 132.768C243.617 132.768 243.126 132.853 242.646 133.024C242.166 133.184 241.761 133.403 241.43 133.68L240.79 132.528C241.227 132.176 241.75 131.909 242.358 131.728C242.977 131.536 243.622 131.44 244.294 131.44C245.457 131.44 246.353 131.723 246.982 132.288C247.611 132.853 247.926 133.717 247.926 134.88V140H246.47ZM243.686 140.096C243.057 140.096 242.502 139.989 242.022 139.776C241.553 139.563 241.19 139.269 240.934 138.896C240.678 138.512 240.55 138.08 240.55 137.6C240.55 137.141 240.657 136.725 240.87 136.352C241.094 135.979 241.451 135.68 241.942 135.456C242.443 135.232 243.115 135.12 243.958 135.12H246.646V136.224H244.022C243.254 136.224 242.737 136.352 242.47 136.608C242.203 136.864 242.07 137.173 242.07 137.536C242.07 137.952 242.235 138.288 242.566 138.544C242.897 138.789 243.355 138.912 243.942 138.912C244.518 138.912 245.019 138.784 245.446 138.528C245.883 138.272 246.198 137.899 246.39 137.408L246.694 138.464C246.491 138.965 246.134 139.365 245.622 139.664C245.11 139.952 244.465 140.096 243.686 140.096ZM250.769 140V131.52H252.241V133.824L252.097 133.248C252.331 132.661 252.726 132.213 253.281 131.904C253.835 131.595 254.518 131.44 255.329 131.44V132.928C255.265 132.917 255.201 132.912 255.137 132.912C255.083 132.912 255.03 132.912 254.977 132.912C254.155 132.912 253.505 133.157 253.025 133.648C252.545 134.139 252.305 134.848 252.305 135.776V140H250.769ZM260.856 143.2C260.077 143.2 259.32 143.088 258.584 142.864C257.858 142.651 257.266 142.341 256.808 141.936L257.544 140.752C257.938 141.093 258.424 141.36 259 141.552C259.576 141.755 260.178 141.856 260.808 141.856C261.81 141.856 262.546 141.621 263.016 141.152C263.485 140.683 263.72 139.968 263.72 139.008V137.216L263.88 135.536L263.8 133.84V131.52H265.256V138.848C265.256 140.341 264.882 141.44 264.135 142.144C263.389 142.848 262.296 143.2 260.856 143.2ZM260.664 139.648C259.842 139.648 259.106 139.477 258.456 139.136C257.816 138.784 257.304 138.299 256.92 137.68C256.546 137.061 256.36 136.347 256.36 135.536C256.36 134.715 256.546 134 256.92 133.392C257.304 132.773 257.816 132.293 258.456 131.952C259.106 131.611 259.842 131.44 260.664 131.44C261.389 131.44 262.05 131.589 262.648 131.888C263.245 132.176 263.72 132.624 264.072 133.232C264.434 133.84 264.616 134.608 264.616 135.536C264.616 136.453 264.434 137.216 264.072 137.824C263.72 138.432 263.245 138.891 262.648 139.2C262.05 139.499 261.389 139.648 260.664 139.648ZM260.84 138.304C261.405 138.304 261.906 138.187 262.344 137.952C262.781 137.717 263.122 137.392 263.368 136.976C263.624 136.56 263.752 136.08 263.752 135.536C263.752 134.992 263.624 134.512 263.368 134.096C263.122 133.68 262.781 133.36 262.344 133.136C261.906 132.901 261.405 132.784 260.84 132.784C260.274 132.784 259.768 132.901 259.32 133.136C258.882 133.36 258.536 133.68 258.28 134.096C258.034 134.512 257.912 134.992 257.912 135.536C257.912 136.08 258.034 136.56 258.28 136.976C258.536 137.392 258.882 137.717 259.32 137.952C259.768 138.187 260.274 138.304 260.84 138.304ZM271.966 140.096C271.06 140.096 270.26 139.909 269.566 139.536C268.884 139.163 268.35 138.651 267.966 138C267.593 137.349 267.406 136.603 267.406 135.76C267.406 134.917 267.588 134.171 267.95 133.52C268.324 132.869 268.83 132.363 269.47 132C270.121 131.627 270.852 131.44 271.662 131.44C272.484 131.44 273.209 131.621 273.838 131.984C274.468 132.347 274.958 132.859 275.31 133.52C275.673 134.171 275.854 134.933 275.854 135.808C275.854 135.872 275.849 135.947 275.838 136.032C275.838 136.117 275.833 136.197 275.822 136.272H268.606V135.168H275.022L274.398 135.552C274.409 135.008 274.297 134.523 274.062 134.096C273.828 133.669 273.502 133.339 273.086 133.104C272.681 132.859 272.206 132.736 271.662 132.736C271.129 132.736 270.654 132.859 270.238 133.104C269.822 133.339 269.497 133.675 269.262 134.112C269.028 134.539 268.91 135.029 268.91 135.584V135.84C268.91 136.405 269.038 136.912 269.294 137.36C269.561 137.797 269.929 138.139 270.398 138.384C270.868 138.629 271.406 138.752 272.014 138.752C272.516 138.752 272.969 138.667 273.374 138.496C273.79 138.325 274.153 138.069 274.462 137.728L275.31 138.72C274.926 139.168 274.446 139.509 273.87 139.744C273.305 139.979 272.67 140.096 271.966 140.096ZM282.508 140V130.768C282.508 129.936 282.748 129.275 283.228 128.784C283.719 128.283 284.412 128.032 285.308 128.032C285.639 128.032 285.953 128.075 286.252 128.16C286.561 128.235 286.823 128.357 287.036 128.528L286.572 129.696C286.412 129.568 286.231 129.472 286.028 129.408C285.825 129.333 285.612 129.296 285.388 129.296C284.94 129.296 284.599 129.424 284.364 129.68C284.129 129.925 284.012 130.293 284.012 130.784V131.92L284.044 132.624V140H282.508ZM281.068 132.784V131.52H286.476V132.784H281.068ZM291.432 140.096C290.578 140.096 289.821 139.909 289.16 139.536C288.498 139.163 287.976 138.651 287.592 138C287.208 137.339 287.016 136.592 287.016 135.76C287.016 134.917 287.208 134.171 287.592 133.52C287.976 132.869 288.498 132.363 289.16 132C289.821 131.627 290.578 131.44 291.432 131.44C292.274 131.44 293.026 131.627 293.688 132C294.36 132.363 294.882 132.869 295.256 133.52C295.64 134.16 295.832 134.907 295.832 135.76C295.832 136.603 295.64 137.349 295.256 138C294.882 138.651 294.36 139.163 293.688 139.536C293.026 139.909 292.274 140.096 291.432 140.096ZM291.432 138.752C291.976 138.752 292.461 138.629 292.888 138.384C293.325 138.139 293.666 137.792 293.912 137.344C294.157 136.885 294.28 136.357 294.28 135.76C294.28 135.152 294.157 134.629 293.912 134.192C293.666 133.744 293.325 133.397 292.888 133.152C292.461 132.907 291.976 132.784 291.432 132.784C290.888 132.784 290.402 132.907 289.976 133.152C289.549 133.397 289.208 133.744 288.952 134.192C288.696 134.629 288.568 135.152 288.568 135.76C288.568 136.357 288.696 136.885 288.952 137.344C289.208 137.792 289.549 138.139 289.976 138.384C290.402 138.629 290.888 138.752 291.432 138.752ZM297.956 140V131.52H299.428V133.824L299.284 133.248C299.519 132.661 299.913 132.213 300.468 131.904C301.023 131.595 301.705 131.44 302.516 131.44V132.928C302.452 132.917 302.388 132.912 302.324 132.912C302.271 132.912 302.217 132.912 302.164 132.912C301.343 132.912 300.692 133.157 300.212 133.648C299.732 134.139 299.492 134.848 299.492 135.776V140H297.956ZM311.727 140.096C310.874 140.096 310.213 139.867 309.743 139.408C309.274 138.949 309.039 138.293 309.039 137.44V129.664H310.575V137.376C310.575 137.835 310.687 138.187 310.911 138.432C311.146 138.677 311.477 138.8 311.903 138.8C312.383 138.8 312.783 138.667 313.103 138.4L313.583 139.504C313.349 139.707 313.066 139.856 312.735 139.952C312.415 140.048 312.079 140.096 311.727 140.096ZM307.599 132.784V131.52H313.007V132.784H307.599ZM319.968 131.44C320.662 131.44 321.27 131.573 321.792 131.84C322.326 132.107 322.742 132.512 323.04 133.056C323.339 133.6 323.488 134.288 323.488 135.12V140H321.952V135.296C321.952 134.475 321.75 133.856 321.344 133.44C320.95 133.024 320.39 132.816 319.664 132.816C319.12 132.816 318.646 132.923 318.24 133.136C317.835 133.349 317.52 133.664 317.296 134.08C317.083 134.496 316.976 135.013 316.976 135.632V140H315.44V128.128H316.976V133.808L316.672 133.2C316.95 132.645 317.376 132.213 317.952 131.904C318.528 131.595 319.2 131.44 319.968 131.44ZM330.107 140.096C329.2 140.096 328.4 139.909 327.707 139.536C327.024 139.163 326.491 138.651 326.107 138C325.734 137.349 325.547 136.603 325.547 135.76C325.547 134.917 325.728 134.171 326.091 133.52C326.464 132.869 326.971 132.363 327.611 132C328.262 131.627 328.992 131.44 329.803 131.44C330.624 131.44 331.35 131.621 331.979 131.984C332.608 132.347 333.099 132.859 333.451 133.52C333.814 134.171 333.995 134.933 333.995 135.808C333.995 135.872 333.99 135.947 333.979 136.032C333.979 136.117 333.974 136.197 333.963 136.272H326.747V135.168H333.163L332.539 135.552C332.55 135.008 332.438 134.523 332.203 134.096C331.968 133.669 331.643 133.339 331.227 133.104C330.822 132.859 330.347 132.736 329.803 132.736C329.27 132.736 328.795 132.859 328.379 133.104C327.963 133.339 327.638 133.675 327.403 134.112C327.168 134.539 327.051 135.029 327.051 135.584V135.84C327.051 136.405 327.179 136.912 327.435 137.36C327.702 137.797 328.07 138.139 328.539 138.384C329.008 138.629 329.547 138.752 330.155 138.752C330.656 138.752 331.11 138.667 331.515 138.496C331.931 138.325 332.294 138.069 332.603 137.728L333.451 138.72C333.067 139.168 332.587 139.509 332.011 139.744C331.446 139.979 330.811 140.096 330.107 140.096ZM118.721 160.096C117.867 160.096 117.11 159.909 116.449 159.536C115.787 159.163 115.265 158.651 114.881 158C114.497 157.339 114.305 156.592 114.305 155.76C114.305 154.917 114.497 154.171 114.881 153.52C115.265 152.869 115.787 152.363 116.449 152C117.11 151.627 117.867 151.44 118.721 151.44C119.563 151.44 120.315 151.627 120.977 152C121.649 152.363 122.171 152.869 122.545 153.52C122.929 154.16 123.121 154.907 123.121 155.76C123.121 156.603 122.929 157.349 122.545 158C122.171 158.651 121.649 159.163 120.977 159.536C120.315 159.909 119.563 160.096 118.721 160.096ZM118.721 158.752C119.265 158.752 119.75 158.629 120.177 158.384C120.614 158.139 120.955 157.792 121.201 157.344C121.446 156.885 121.569 156.357 121.569 155.76C121.569 155.152 121.446 154.629 121.201 154.192C120.955 153.744 120.614 153.397 120.177 153.152C119.75 152.907 119.265 152.784 118.721 152.784C118.177 152.784 117.691 152.907 117.265 153.152C116.838 153.397 116.497 153.744 116.241 154.192C115.985 154.629 115.857 155.152 115.857 155.76C115.857 156.357 115.985 156.885 116.241 157.344C116.497 157.792 116.838 158.139 117.265 158.384C117.691 158.629 118.177 158.752 118.721 158.752ZM129.741 160.096C129.037 160.096 128.392 159.936 127.805 159.616C127.229 159.285 126.765 158.8 126.413 158.16C126.072 157.52 125.901 156.72 125.901 155.76C125.901 154.8 126.066 154 126.397 153.36C126.738 152.72 127.197 152.24 127.773 151.92C128.36 151.6 129.016 151.44 129.741 151.44C130.573 151.44 131.309 151.621 131.949 151.984C132.589 152.347 133.096 152.853 133.469 153.504C133.842 154.144 134.029 154.896 134.029 155.76C134.029 156.624 133.842 157.381 133.469 158.032C133.096 158.683 132.589 159.189 131.949 159.552C131.309 159.915 130.573 160.096 129.741 160.096ZM125.245 163.104V151.52H126.717V153.808L126.621 155.776L126.781 157.744V163.104H125.245ZM129.613 158.752C130.157 158.752 130.642 158.629 131.069 158.384C131.506 158.139 131.848 157.792 132.093 157.344C132.349 156.885 132.477 156.357 132.477 155.76C132.477 155.152 132.349 154.629 132.093 154.192C131.848 153.744 131.506 153.397 131.069 153.152C130.642 152.907 130.157 152.784 129.613 152.784C129.08 152.784 128.594 152.907 128.157 153.152C127.73 153.397 127.389 153.744 127.133 154.192C126.888 154.629 126.765 155.152 126.765 155.76C126.765 156.357 126.888 156.885 127.133 157.344C127.389 157.792 127.73 158.139 128.157 158.384C128.594 158.629 129.08 158.752 129.613 158.752ZM139.927 160.096C139.021 160.096 138.221 159.909 137.527 159.536C136.845 159.163 136.311 158.651 135.927 158C135.554 157.349 135.367 156.603 135.367 155.76C135.367 154.917 135.549 154.171 135.911 153.52C136.285 152.869 136.791 152.363 137.431 152C138.082 151.627 138.813 151.44 139.623 151.44C140.445 151.44 141.17 151.621 141.799 151.984C142.429 152.347 142.919 152.859 143.271 153.52C143.634 154.171 143.815 154.933 143.815 155.808C143.815 155.872 143.81 155.947 143.799 156.032C143.799 156.117 143.794 156.197 143.783 156.272H136.567V155.168H142.983L142.359 155.552C142.37 155.008 142.258 154.523 142.023 154.096C141.789 153.669 141.463 153.339 141.047 153.104C140.642 152.859 140.167 152.736 139.623 152.736C139.09 152.736 138.615 152.859 138.199 153.104C137.783 153.339 137.458 153.675 137.223 154.112C136.989 154.539 136.871 155.029 136.871 155.584V155.84C136.871 156.405 136.999 156.912 137.255 157.36C137.522 157.797 137.89 158.139 138.359 158.384C138.829 158.629 139.367 158.752 139.975 158.752C140.477 158.752 140.93 158.667 141.335 158.496C141.751 158.325 142.114 158.069 142.423 157.728L143.271 158.72C142.887 159.168 142.407 159.509 141.831 159.744C141.266 159.979 140.631 160.096 139.927 160.096ZM145.948 160V151.52H147.42V153.824L147.276 153.248C147.511 152.661 147.906 152.213 148.46 151.904C149.015 151.595 149.698 151.44 150.508 151.44V152.928C150.444 152.917 150.38 152.912 150.316 152.912C150.263 152.912 150.21 152.912 150.156 152.912C149.335 152.912 148.684 153.157 148.204 153.648C147.724 154.139 147.484 154.848 147.484 155.776V160H145.948ZM157.04 160V158.208L156.96 157.872V154.816C156.96 154.165 156.768 153.664 156.384 153.312C156.011 152.949 155.446 152.768 154.688 152.768C154.187 152.768 153.696 152.853 153.216 153.024C152.736 153.184 152.331 153.403 152 153.68L151.36 152.528C151.798 152.176 152.32 151.909 152.928 151.728C153.547 151.536 154.192 151.44 154.864 151.44C156.027 151.44 156.923 151.723 157.552 152.288C158.182 152.853 158.496 153.717 158.496 154.88V160H157.04ZM154.256 160.096C153.627 160.096 153.072 159.989 152.592 159.776C152.123 159.563 151.76 159.269 151.504 158.896C151.248 158.512 151.12 158.08 151.12 157.6C151.12 157.141 151.227 156.725 151.44 156.352C151.664 155.979 152.022 155.68 152.512 155.456C153.014 155.232 153.686 155.12 154.528 155.12H157.216V156.224H154.592C153.824 156.224 153.307 156.352 153.04 156.608C152.774 156.864 152.64 157.173 152.64 157.536C152.64 157.952 152.806 158.288 153.136 158.544C153.467 158.789 153.926 158.912 154.512 158.912C155.088 158.912 155.59 158.784 156.016 158.528C156.454 158.272 156.768 157.899 156.96 157.408L157.264 158.464C157.062 158.965 156.704 159.365 156.192 159.664C155.68 159.952 155.035 160.096 154.256 160.096ZM164.251 160.096C163.397 160.096 162.736 159.867 162.267 159.408C161.797 158.949 161.563 158.293 161.563 157.44V149.664H163.099V157.376C163.099 157.835 163.211 158.187 163.435 158.432C163.669 158.677 164 158.8 164.427 158.8C164.907 158.8 165.307 158.667 165.627 158.4L166.107 159.504C165.872 159.707 165.589 159.856 165.259 159.952C164.939 160.048 164.603 160.096 164.251 160.096ZM160.123 152.784V151.52H165.531V152.784H160.123ZM167.964 160V151.52H169.5V160H167.964ZM168.732 149.888C168.433 149.888 168.182 149.792 167.98 149.6C167.788 149.408 167.692 149.173 167.692 148.896C167.692 148.608 167.788 148.368 167.98 148.176C168.182 147.984 168.433 147.888 168.732 147.888C169.03 147.888 169.276 147.984 169.468 148.176C169.67 148.357 169.772 148.587 169.772 148.864C169.772 149.152 169.676 149.397 169.484 149.6C169.292 149.792 169.041 149.888 168.732 149.888ZM176.065 160.096C175.211 160.096 174.454 159.909 173.793 159.536C173.131 159.163 172.609 158.651 172.225 158C171.841 157.339 171.649 156.592 171.649 155.76C171.649 154.917 171.841 154.171 172.225 153.52C172.609 152.869 173.131 152.363 173.793 152C174.454 151.627 175.211 151.44 176.065 151.44C176.907 151.44 177.659 151.627 178.321 152C178.993 152.363 179.515 152.869 179.889 153.52C180.273 154.16 180.465 154.907 180.465 155.76C180.465 156.603 180.273 157.349 179.889 158C179.515 158.651 178.993 159.163 178.321 159.536C177.659 159.909 176.907 160.096 176.065 160.096ZM176.065 158.752C176.609 158.752 177.094 158.629 177.521 158.384C177.958 158.139 178.299 157.792 178.545 157.344C178.79 156.885 178.913 156.357 178.913 155.76C178.913 155.152 178.79 154.629 178.545 154.192C178.299 153.744 177.958 153.397 177.521 153.152C177.094 152.907 176.609 152.784 176.065 152.784C175.521 152.784 175.035 152.907 174.609 153.152C174.182 153.397 173.841 153.744 173.585 154.192C173.329 154.629 173.201 155.152 173.201 155.76C173.201 156.357 173.329 156.885 173.585 157.344C173.841 157.792 174.182 158.139 174.609 158.384C175.035 158.629 175.521 158.752 176.065 158.752ZM187.117 151.44C187.81 151.44 188.418 151.573 188.941 151.84C189.474 152.107 189.89 152.512 190.189 153.056C190.487 153.6 190.637 154.288 190.637 155.12V160H189.101V155.296C189.101 154.475 188.898 153.856 188.493 153.44C188.098 153.024 187.538 152.816 186.813 152.816C186.269 152.816 185.794 152.923 185.389 153.136C184.983 153.349 184.669 153.664 184.445 154.08C184.231 154.496 184.125 155.013 184.125 155.632V160H182.589V151.52H184.061V153.808L183.821 153.2C184.098 152.645 184.525 152.213 185.101 151.904C185.677 151.595 186.349 151.44 187.117 151.44ZM198 160V150.768C198 149.936 198.24 149.275 198.72 148.784C199.211 148.283 199.904 148.032 200.8 148.032C201.131 148.032 201.446 148.075 201.744 148.16C202.054 148.235 202.315 148.357 202.528 148.528L202.064 149.696C201.904 149.568 201.723 149.472 201.52 149.408C201.318 149.333 201.104 149.296 200.88 149.296C200.432 149.296 200.091 149.424 199.856 149.68C199.622 149.925 199.504 150.293 199.504 150.784V151.92L199.536 152.624V160H198ZM196.56 152.784V151.52H201.968V152.784H196.56ZM203.424 160V151.52H204.96V160H203.424ZM204.192 149.888C203.894 149.888 203.643 149.792 203.44 149.6C203.248 149.408 203.152 149.173 203.152 148.896C203.152 148.608 203.248 148.368 203.44 148.176C203.643 147.984 203.894 147.888 204.192 147.888C204.491 147.888 204.736 147.984 204.928 148.176C205.131 148.357 205.232 148.587 205.232 148.864C205.232 149.152 205.136 149.397 204.944 149.6C204.752 149.792 204.502 149.888 204.192 149.888ZM207.886 160V148.128H209.422V160H207.886ZM216.13 160.096C215.224 160.096 214.424 159.909 213.73 159.536C213.048 159.163 212.514 158.651 212.13 158C211.757 157.349 211.57 156.603 211.57 155.76C211.57 154.917 211.752 154.171 212.114 153.52C212.488 152.869 212.994 152.363 213.634 152C214.285 151.627 215.016 151.44 215.826 151.44C216.648 151.44 217.373 151.621 218.002 151.984C218.632 152.347 219.122 152.859 219.474 153.52C219.837 154.171 220.018 154.933 220.018 155.808C220.018 155.872 220.013 155.947 220.002 156.032C220.002 156.117 219.997 156.197 219.986 156.272H212.77V155.168H219.186L218.562 155.552C218.573 155.008 218.461 154.523 218.226 154.096C217.992 153.669 217.666 153.339 217.25 153.104C216.845 152.859 216.37 152.736 215.826 152.736C215.293 152.736 214.818 152.859 214.402 153.104C213.986 153.339 213.661 153.675 213.426 154.112C213.192 154.539 213.074 155.029 213.074 155.584V155.84C213.074 156.405 213.202 156.912 213.458 157.36C213.725 157.797 214.093 158.139 214.562 158.384C215.032 158.629 215.57 158.752 216.178 158.752C216.68 158.752 217.133 158.667 217.538 158.496C217.954 158.325 218.317 158.069 218.626 157.728L219.474 158.72C219.09 159.168 218.61 159.509 218.034 159.744C217.469 159.979 216.834 160.096 216.13 160.096ZM228.88 160.096C228.176 160.096 227.504 160 226.864 159.808C226.235 159.616 225.739 159.381 225.376 159.104L226.016 157.888C226.379 158.133 226.827 158.341 227.36 158.512C227.894 158.683 228.438 158.768 228.992 158.768C229.707 158.768 230.219 158.667 230.528 158.464C230.848 158.261 231.008 157.979 231.008 157.616C231.008 157.349 230.912 157.141 230.72 156.992C230.528 156.843 230.272 156.731 229.952 156.656C229.643 156.581 229.296 156.517 228.912 156.464C228.528 156.4 228.144 156.325 227.76 156.24C227.376 156.144 227.024 156.016 226.704 155.856C226.384 155.685 226.128 155.456 225.936 155.168C225.744 154.869 225.648 154.475 225.648 153.984C225.648 153.472 225.792 153.024 226.08 152.64C226.368 152.256 226.774 151.963 227.296 151.76C227.83 151.547 228.459 151.44 229.184 151.44C229.739 151.44 230.299 151.509 230.864 151.648C231.44 151.776 231.91 151.963 232.272 152.208L231.616 153.424C231.232 153.168 230.832 152.992 230.416 152.896C230 152.8 229.584 152.752 229.168 152.752C228.496 152.752 227.995 152.864 227.664 153.088C227.334 153.301 227.168 153.579 227.168 153.92C227.168 154.208 227.264 154.432 227.456 154.592C227.659 154.741 227.915 154.859 228.224 154.944C228.544 155.029 228.896 155.104 229.28 155.168C229.664 155.221 230.048 155.296 230.432 155.392C230.816 155.477 231.163 155.6 231.472 155.76C231.792 155.92 232.048 156.144 232.24 156.432C232.443 156.72 232.544 157.104 232.544 157.584C232.544 158.096 232.395 158.539 232.096 158.912C231.798 159.285 231.376 159.579 230.832 159.792C230.288 159.995 229.638 160.096 228.88 160.096ZM234.676 163.2C234.27 163.2 233.876 163.131 233.492 162.992C233.108 162.864 232.777 162.672 232.5 162.416L233.156 161.264C233.369 161.467 233.604 161.621 233.86 161.728C234.116 161.835 234.388 161.888 234.676 161.888C235.049 161.888 235.358 161.792 235.604 161.6C235.849 161.408 236.078 161.067 236.292 160.576L236.82 159.408L236.98 159.216L240.308 151.52H241.812L237.7 160.848C237.454 161.445 237.177 161.915 236.868 162.256C236.569 162.597 236.238 162.837 235.876 162.976C235.513 163.125 235.113 163.2 234.676 163.2ZM236.692 160.272L232.82 151.52H234.42L237.716 159.072L236.692 160.272ZM245.568 160.096C244.864 160.096 244.192 160 243.552 159.808C242.922 159.616 242.426 159.381 242.064 159.104L242.704 157.888C243.066 158.133 243.514 158.341 244.048 158.512C244.581 158.683 245.125 158.768 245.68 158.768C246.394 158.768 246.906 158.667 247.216 158.464C247.536 158.261 247.696 157.979 247.696 157.616C247.696 157.349 247.6 157.141 247.408 156.992C247.216 156.843 246.96 156.731 246.64 156.656C246.33 156.581 245.984 156.517 245.6 156.464C245.216 156.4 244.832 156.325 244.448 156.24C244.064 156.144 243.712 156.016 243.392 155.856C243.072 155.685 242.816 155.456 242.624 155.168C242.432 154.869 242.336 154.475 242.336 153.984C242.336 153.472 242.48 153.024 242.768 152.64C243.056 152.256 243.461 151.963 243.984 151.76C244.517 151.547 245.146 151.44 245.872 151.44C246.426 151.44 246.986 151.509 247.552 151.648C248.128 151.776 248.597 151.963 248.96 152.208L248.304 153.424C247.92 153.168 247.52 152.992 247.104 152.896C246.688 152.8 246.272 152.752 245.856 152.752C245.184 152.752 244.682 152.864 244.352 153.088C244.021 153.301 243.856 153.579 243.856 153.92C243.856 154.208 243.952 154.432 244.144 154.592C244.346 154.741 244.602 154.859 244.912 154.944C245.232 155.029 245.584 155.104 245.968 155.168C246.352 155.221 246.736 155.296 247.12 155.392C247.504 155.477 247.85 155.6 248.16 155.76C248.48 155.92 248.736 156.144 248.928 156.432C249.13 156.72 249.232 157.104 249.232 157.584C249.232 158.096 249.082 158.539 248.784 158.912C248.485 159.285 248.064 159.579 247.52 159.792C246.976 159.995 246.325 160.096 245.568 160.096ZM254.063 160.096C253.21 160.096 252.549 159.867 252.079 159.408C251.61 158.949 251.375 158.293 251.375 157.44V149.664H252.911V157.376C252.911 157.835 253.023 158.187 253.247 158.432C253.482 158.677 253.813 158.8 254.239 158.8C254.719 158.8 255.119 158.667 255.439 158.4L255.919 159.504C255.685 159.707 255.402 159.856 255.071 159.952C254.751 160.048 254.415 160.096 254.063 160.096ZM249.935 152.784V151.52H255.343V152.784H249.935ZM261.271 160.096C260.364 160.096 259.564 159.909 258.871 159.536C258.188 159.163 257.655 158.651 257.271 158C256.898 157.349 256.711 156.603 256.711 155.76C256.711 154.917 256.892 154.171 257.255 153.52C257.628 152.869 258.135 152.363 258.775 152C259.426 151.627 260.156 151.44 260.967 151.44C261.788 151.44 262.514 151.621 263.143 151.984C263.772 152.347 264.263 152.859 264.615 153.52C264.978 154.171 265.159 154.933 265.159 155.808C265.159 155.872 265.154 155.947 265.143 156.032C265.143 156.117 265.138 156.197 265.127 156.272H257.911V155.168H264.327L263.703 155.552C263.714 155.008 263.602 154.523 263.367 154.096C263.132 153.669 262.807 153.339 262.391 153.104C261.986 152.859 261.511 152.736 260.967 152.736C260.434 152.736 259.959 152.859 259.543 153.104C259.127 153.339 258.802 153.675 258.567 154.112C258.332 154.539 258.215 155.029 258.215 155.584V155.84C258.215 156.405 258.343 156.912 258.599 157.36C258.866 157.797 259.234 158.139 259.703 158.384C260.172 158.629 260.711 158.752 261.319 158.752C261.82 158.752 262.274 158.667 262.679 158.496C263.095 158.325 263.458 158.069 263.767 157.728L264.615 158.72C264.231 159.168 263.751 159.509 263.175 159.744C262.61 159.979 261.975 160.096 261.271 160.096ZM277.9 151.44C278.583 151.44 279.185 151.573 279.708 151.84C280.231 152.107 280.636 152.512 280.924 153.056C281.223 153.6 281.372 154.288 281.372 155.12V160H279.836V155.296C279.836 154.475 279.644 153.856 279.26 153.44C278.876 153.024 278.337 152.816 277.644 152.816C277.132 152.816 276.684 152.923 276.3 153.136C275.916 153.349 275.617 153.664 275.404 154.08C275.201 154.496 275.1 155.013 275.1 155.632V160H273.564V155.296C273.564 154.475 273.372 153.856 272.988 153.44C272.615 153.024 272.076 152.816 271.372 152.816C270.871 152.816 270.428 152.923 270.044 153.136C269.66 153.349 269.361 153.664 269.148 154.08C268.935 154.496 268.828 155.013 268.828 155.632V160H267.292V151.52H268.764V153.776L268.524 153.2C268.791 152.645 269.201 152.213 269.756 151.904C270.311 151.595 270.956 151.44 271.692 151.44C272.503 151.44 273.201 151.643 273.788 152.048C274.375 152.443 274.759 153.045 274.94 153.856L274.316 153.6C274.572 152.949 275.02 152.427 275.66 152.032C276.3 151.637 277.047 151.44 277.9 151.44ZM284.566 160.096C284.268 160.096 284.012 159.995 283.798 159.792C283.585 159.579 283.478 159.312 283.478 158.992C283.478 158.672 283.585 158.411 283.798 158.208C284.012 158.005 284.268 157.904 284.566 157.904C284.854 157.904 285.1 158.005 285.302 158.208C285.516 158.411 285.622 158.672 285.622 158.992C285.622 159.312 285.516 159.579 285.302 159.792C285.1 159.995 284.854 160.096 284.566 160.096Z" fill="#101F46"/>
<rect x="16" y="196" width="368" height="56" rx="8" fill="#FD1212"/>
<path d="M193.579 230.216C192.583 230.216 191.659 230.054 190.807 229.73C189.967 229.406 189.235 228.95 188.611 228.362C187.999 227.774 187.519 227.084 187.171 226.292C186.835 225.5 186.667 224.636 186.667 223.7C186.667 222.764 186.835 221.9 187.171 221.108C187.519 220.316 188.005 219.626 188.629 219.038C189.253 218.45 189.985 217.994 190.825 217.67C191.665 217.346 192.577 217.184 193.561 217.184C194.557 217.184 195.469 217.346 196.297 217.67C197.137 217.994 197.863 218.45 198.475 219.038C199.099 219.626 199.585 220.316 199.933 221.108C200.281 221.888 200.455 222.752 200.455 223.7C200.455 224.636 200.281 225.506 199.933 226.31C199.585 227.102 199.099 227.792 198.475 228.38C197.863 228.956 197.137 229.406 196.297 229.73C195.469 230.054 194.563 230.216 193.579 230.216ZM193.561 227.732C194.125 227.732 194.641 227.636 195.109 227.444C195.589 227.252 196.009 226.976 196.369 226.616C196.729 226.256 197.005 225.83 197.197 225.338C197.401 224.846 197.503 224.3 197.503 223.7C197.503 223.1 197.401 222.554 197.197 222.062C197.005 221.57 196.729 221.144 196.369 220.784C196.021 220.424 195.607 220.148 195.127 219.956C194.647 219.764 194.125 219.668 193.561 219.668C192.997 219.668 192.475 219.764 191.995 219.956C191.527 220.148 191.113 220.424 190.753 220.784C190.393 221.144 190.111 221.57 189.907 222.062C189.715 222.554 189.619 223.1 189.619 223.7C189.619 224.288 189.715 224.834 189.907 225.338C190.111 225.83 190.387 226.256 190.735 226.616C191.095 226.976 191.515 227.252 191.995 227.444C192.475 227.636 192.997 227.732 193.561 227.732ZM204.77 228.02L204.842 224.6L209.36 220.316H212.708L208.37 224.726L206.912 225.914L204.77 228.02ZM202.448 230V216.644H205.256V230H202.448ZM209.666 230L206.39 225.932L208.154 223.754L213.068 230H209.666Z" fill="white"/>
<rect x="1" y="1" width="398" height="282" rx="4" stroke="#FD1212" stroke-width="2"/>
<defs>
<clipPath id="clip0_33_74">
<rect width="48" height="48" fill="white" transform="translate(176 24)"/>
</clipPath>
</defs>
</svg>
